<svg id="Layer_1" data-name="Layer 1" xmlns="http://www.w3.org/2000/svg" xmlns:xlink="http://www.w3.org/1999/xlink" viewBox="0 0 1050.7 351.91"><defs><style>.cls-1,.cls-10,.cls-2,.cls-3,.cls-4,.cls-5,.cls-6,.cls-7,.cls-8,.cls-9{isolation:isolate;font-size:45px;font-family:KozGoPr6N-Regular-83pv-RKSJ-H, Kozuka Gothic Pr6N;}.cls-1,.cls-3,.cls-5,.cls-7,.cls-9{fill:#fff;}.cls-1,.cls-2{letter-spacing:-0.11em;}.cls-10,.cls-11,.cls-2,.cls-4,.cls-6,.cls-8{fill:none;}.cls-10,.cls-2,.cls-4,.cls-6,.cls-8{stroke:#000;stroke-miterlimit:10;}.cls-3,.cls-4{letter-spacing:-0.06em;}.cls-7,.cls-8{letter-spacing:-0.1em;}.cls-10,.cls-9{letter-spacing:-0.11em;}.cls-12{fill:url(#linear-gradient);}.cls-13{fill:url(#linear-gradient-2);}.cls-14{fill:url(#linear-gradient-3);}.cls-15{fill:url(#linear-gradient-5);}</style><linearGradient id="linear-gradient" x1="23.6" y1="275.5" x2="1074.43" y2="275.5" gradientTransform="translate(0 -44)" gradientUnits="userSpaceOnUse"><stop offset="0.1" stop-color="#e00000"/><stop offset="0.28" stop-color="#ff5a3f"/><stop offset="0.48" stop-color="#ff2925"/><stop offset="0.64" stop-color="#ff2f15"/><stop offset="0.91" stop-color="#c00"/></linearGradient><linearGradient id="linear-gradient-2" x1="23.49" y1="254.6" x2="1074.32" y2="254.6" xlink:href="#linear-gradient"/><linearGradient id="linear-gradient-3" x1="23.49" y1="256.25" x2="1074.32" y2="256.25" xlink:href="#linear-gradient"/><linearGradient id="linear-gradient-5" x1="23.49" y1="253.37" x2="1074.32" y2="253.37" xlink:href="#linear-gradient"/></defs><text class="cls-1" transform="translate(379.6 336.15)">日</text><text class="cls-2" transform="translate(379.6 336.15)">日</text><text class="cls-3" transform="translate(425.05 336.15)">本を</text><text class="cls-4" transform="translate(425.05 336.15)">本を</text><text class="cls-5" transform="translate(510.55 336.15)">発見</text><text class="cls-6" transform="translate(510.55 336.15)">発見</text><text class="cls-7" transform="translate(597.85 336.15)">す</text><text class="cls-8" transform="translate(597.85 336.15)">す</text><text class="cls-9" transform="translate(632.05 336.15)">る</text><text class="cls-10" transform="translate(632.05 336.15)">る</text><rect class="cls-11" x="7.1" width="1039" height="267"/><path class="cls-12" d="M219.3,155.4c-6.1,12.6-9.7,20.5-13.3,31-10.8,8.6-18.4,24.8-18.4,41.4-2.2,1.8-4.7,0-6.1-2.2-3.2-5-11.5-.4-8.6,10.8l7.2-1.8c.7,1.8-.7,6.8-2.5,11.2l-7.9-5.8-3.2,3.2,2.5,2.5c-1.4,6.1-8.3,24.1,0,23.4-1.4,4.3-3.6,9.4-7.9,5-3.6,4.7-2.5,8.3,2.2,7.9-.4,5.8-6.1,4-9.7,1.1l-4.7,4.3,2.9,1.4a19.84,19.84,0,0,0-.4,13.7c2.5-5.4,4.7-10.8,8.6-11.9-13,33.5-33.8,67-59.4,91.8-53.3,0-77-50.4-77-94.7,0-22.7,4-45.4,19.1-66.6,21.2,0,36.4,18,36.4,51.8l-12.6,9.7c-5.4,10.4-9,23.4-9,32.4,0,15.1,4.7,24.5,16.6,24.5,14,0,25.6-26.6,40-50.8,23.4-52.9,34.9-131.4,77-186.5,7.6-9.7,15.5-21.6,21.2-21.6,6.1,0,12.2,4.7,19.4,9.7,4.3,9,8.3,25.2,8.3,33.5C239.9,136.7,225.5,143.5,219.3,155.4ZM103.4,364.5A33.65,33.65,0,0,0,119.2,353c-7.2,1.4-16.9,2.5-16.9,7.6A9.28,9.28,0,0,0,103.4,364.5Zm6.5-.3-5,3.6,1.1,3.6,4-4.7-.1-2.5Zm11.5-22,1.4,1.4-5.4,6.1,4,.7,7.2-10.1c2.2-2.9,3.6-5.4,1.1-7.9Zm11.9-9.3,6.5-9.4c-3.6-.4-7.6.4-10.1,4.3Zm21.6-64.8,4,4.3c1.8-3.6,1.8-9.4,1.8-13Zm16.2-4.4c-4-1.4.4-11.5,1.8-14.8l2.5,2.2Zm25.2-79.9,5.4,1.1,4.3-11.2C203.1,173.7,199.2,177.3,196.3,183.8Z" transform="translate(-23.6 -69)"/><path class="cls-13" d="M386,240c-2.9,6.1-1.8,22-9.4,29.2,5,2.9,2.2,11.9-2.5,16.2,2.2,5.4,3.6,9.4-4,19.4-.4,1.4,3.2-.4,4-1.1-.7,12.2-3.6,22-7.2,32.8-11.2,0-21.2-10.8-27-8.6.4-7.2-.7-10.1-5.8-10.1l.4-5c1.8,0,3.2-1.1,3.6-3.6-1.8,0-3.2-1.1-3.2-3.6.7-8.3,5-18.7,7.2-29.5,2.5,0,2.5,4.7,2.2,10.1,2.5,0,6.5-14.8,7.2-23l-4.3-1.8c-.4,5.8-.4,13.7-4.7,11.9,1.1-5,2.2-17.6,3.2-22l6.1,7.6c-.4-4.3,1.4-5.4.7-10.8-20.5-.7-74.9,28.4-91.1,39.6l-1.8,4.7,1.4,4.3c-6.1,12.6-11.5,27.4-17.3,34.9L221,321.9c-1.1-11.2-16.6-15.8-12.6-25.2h-5.8c7.9-54.4,68-112.7,101.9-158a265.68,265.68,0,0,1,47.9-48.6c2.5-2.2,12.6,1.4,13.3-5.4,4.7,1.4,14.8,5.8,20.2,10.1L379.4,97c-.4,6.1,8.6-.7,10.4.7,13.3,11.5,5.8,31,12.6,41.4.4,1.8-.4,32.8-5.8,36a10.5,10.5,0,0,0,2.2,1.4c-2.2,7.9-5,18.4-5.8,28.4-.4,4.3,13.3,16.6,12.2,32.4C399,237.8,392.1,239.3,386,240ZM271.9,268.8a76,76,0,0,0-4,6.5l27.4-14.4C290.6,257.3,278.7,265.2,271.9,268.8Zm15.5-15.1c-2.9,1.1-5,1.4-7.6,2.5l-4.3,6.1C276.9,261.6,285.2,258.7,287.4,253.7Zm87.8-123.2c-6.8.4-23.4,20.5-38.9,41l-1.8-1.8c1.1-2.9,2.2-5,.7-6.5-5.8,6.5-8.3,9.7-5,16.6-5.4,7.2-10.4,13.7-15.1,19.4-6.5,8.3-16.2,23.8-24.5,35.6,7.2-4.3,12.6-11.9,27-18,12.6-5.4,20.2-6.8,33.1-10.4,1.1-9.4,4.7-16.2,6.1-21.2l6.1,5.4c4.3-11.2,9.4-40.3,13.3-56.5Zm-63,121.7v-.4c-7.9.4-11.2,1.1-12.6,6.8C302.8,256.9,308.2,254.7,312.2,252.2Zm31.7,36.4-1.4,4.7h2.2l1.4-5.8ZM355,201.8c-1.4,4.3,1.1,4.3,3.6,4l.4-4Zm3.3-5.7-1.4-.4-1.4,4h3.2Zm10.4-44.3h-3.2l2.9-9.7,3.2-1.4Z" transform="translate(-23.6 -69)"/><path class="cls-14" d="M555.9,197.9l-2.9-2.5c-24.5,14.4-51.1,33.8-62.3,26.6-4.3,7.2-12.6,28.4-14.4,28.4s-.7-9.4-4.7-2.5c-4,7.2-12.2,21.6-11.5,32,0,2.2,5.8-1.4,5,.7L449,327.8a95.89,95.89,0,0,0-3.2,16.6c-3.2,0-23-7.2-28.1-14.4-5.8-8.6-7.6-21.2-7.6-28.4,11.5-35.6,38.5-98.6,58-140.4a82.28,82.28,0,0,1-13.7-12.6,30.39,30.39,0,0,0,5.4-12.6l-9-2.2c2.5-3.6,6.8-6.1,9.7-7.9v-5.8c34.2,2.2,30.6-40,44.3-40a24.32,24.32,0,0,1,7.9,1.4c5.4,1.8,10.1,4.7,16.2,5.4,2.9,7.2,6.5,13.7,7.9,21.6,11.2.4,22.3.7,35.3,2.9,19.1,2.9,30.6,10.1,30.6,30.6C602.7,167.3,583.6,178.4,555.9,197.9Zm-88.2,77.4c-1.4,0-3.6,2.2-4.7,1.1,1.1-5,5-14,7.2-14.8C475.3,259.4,469.5,270.6,467.7,275.3Zm53.7-73.1h-4.7c-4.7,0-8.6,5-9.4,10.1,8.6-2.5,18.7-7.6,26.3-11.9C529.3,195.7,527.1,202.2,521.4,202.2Zm10.8-5.8c2.9,0,3.2,3.6,6.1,1.8l6.1-3.6C542.6,192.8,535,192.1,532.2,196.4Zm15.4-7.2c-1.4,1.1,1.4,3.6,5,1.1,7.2-4.3,20.2-10.4,17.3-14.4Zm28.8-18c-1.8,1.1-3.6,1.4-4.3,3.6-1.1,2.9,7.9.7,7.9-3.2C580,170.5,578.2,170.1,576.4,171.2Z" transform="translate(-23.6 -69)"/><path class="cls-13" d="M747.1,240c-2.9,6.1-1.8,22-9.4,29.2,5,2.9,2.2,11.9-2.5,16.2,2.2,5.4,3.6,9.4-4,19.4-.4,1.4,3.2-.4,4-1.1-.7,12.2-3.6,22-7.2,32.8-11.2,0-21.2-10.8-27-8.6.4-7.2-.7-10.1-5.8-10.1l.4-5c1.8,0,3.2-1.1,3.6-3.6-1.8,0-3.2-1.1-3.2-3.6.7-8.3,5-18.7,7.2-29.5,2.5,0,2.5,4.7,2.2,10.1,2.5,0,6.5-14.8,7.2-23l-4.3-1.8c-.4,5.8-.4,13.7-4.7,11.9,1.1-5,2.2-17.6,3.2-22l6.1,7.6c-.4-4.3,1.4-5.4.7-10.8-20.5-.7-74.9,28.4-91.1,39.6l-1.8,4.7,1.4,4.3c-6.1,12.6-11.5,27.4-17.3,34.9l-22.7-9.7c-1.1-11.2-16.6-15.8-12.6-25.2h-5.8c7.9-54.4,68-112.7,101.9-158a265.68,265.68,0,0,1,47.9-48.6c2.5-2.2,12.6,1.4,13.3-5.4,4.7,1.4,14.8,5.8,20.2,10.1L740.5,97c-.4,6.1,8.6-.7,10.4.7,13.3,11.5,5.8,31,12.6,41.4.4,1.8-.4,32.8-5.8,36a10.5,10.5,0,0,0,2.2,1.4c-2.2,7.9-5,18.4-5.8,28.4-.4,4.3,13.3,16.6,12.2,32.4C760,237.8,753.2,239.3,747.1,240ZM633,268.8a76,76,0,0,0-4,6.5l27.4-14.4C651.7,257.3,639.8,265.2,633,268.8Zm15.4-15.1c-2.9,1.1-5,1.4-7.6,2.5l-4.3,6.1C638,261.6,646.3,258.7,648.4,253.7Zm87.9-123.2c-6.8.4-23.4,20.5-38.9,41l-1.8-1.8c1.1-2.9,2.2-5,.7-6.5-5.8,6.5-8.3,9.7-5,16.6-5.4,7.2-10.4,13.7-15.1,19.4-6.5,8.3-16.2,23.8-24.5,35.6,7.2-4.3,12.6-11.9,27-18,12.6-5.4,20.2-6.8,33.1-10.4,1.1-9.4,4.7-16.2,6.1-21.2l6.1,5.4c4.3-11.2,9.4-40.3,13.3-56.5Zm-63,121.7v-.4c-7.9.4-11.2,1.1-12.6,6.8C663.9,256.9,669.3,254.7,673.3,252.2ZM705,288.6l-1.4,4.7h2.2l1.4-5.8Zm11.1-86.8c-1.4,4.3,1.1,4.3,3.6,4l.4-4Zm3.3-5.7-1.4-.4-1.4,4h3.2Zm10.4-44.3h-3.2l2.9-9.7,3.2-1.4Z" transform="translate(-23.6 -69)"/><path class="cls-15" d="M1011.3,105c4-2.5,11.2-4.3,18.7-4.7,13-.4,23,1.4,29.2,5.8l-7.2,5,.7,1.4c2.5,0,9.4-2.2,11.5-3.6l10.1,10.8c-18.7,8.6-52.2,33.5-70.6,58.7-2.2,2.9-3.6-1.4-5.8,0-.7,13-8.3,19.8-16.9,33.5-1.8,3.2-1.1,7.9-3.2,13,0,2.2-5.4,4.3-6.5,7.6-9,27.7-21.2,56.5-32.8,86l-16.2-7.6-2.2,5c-23-6.1-25.2-15.1-28.4-39.2-1.1-9.4,1.8-25.6-.7-33.5-8.6-25.2-.4-36-2.5-54.4l-1.8-14c-11.2,3.6-23.8,14.4-33.1,31.3l1.1,5.8c-18,33.8-34.2,80.6-50.4,102.2H794.2c-10.4,0-16.2-24.1-20.5-26.3L771.5,272c-1.8-11.2,1.4-15.1,4-22,25.6-61.9,66.6-99.4,95-128.5,10.8,4,40.3,22.3,45.4,35.6,4.3,10.8,8.6,33.5,12.2,48.2,24.5-42.5,60.5-95.4,68.4-98.3l7.6-1.1c-22.3,22-38.2,47.9-46.8,60.5-3.2,5.4-4.7,7.6-4,7.9l2.2,1.4C966,159.7,990.1,125.5,1011.3,105ZM868.8,130.2l-7.9,8.3c4.3,3.6,8.3-3.6,10.8-6.1ZM976,244.7l-3.2-2.2c.4-5,.7-11.9,5-10.1Zm28.5-83.6c-2.9,4.3-8.6,11.9-5,13.7l7.6-11.5C1007.7,162.2,1005.2,160.1,1004.5,161.1Zm-1.8-38.1,6.1-7.9-2.9-1.4a27.32,27.32,0,0,0-6.1,7.6C1000.2,121.9,1001.2,123.3,1002.7,123Zm11.1,25.5-7.2,9.4c2.2-.4,2.9.4,3.2,1.8l6.5-9.4C1017.1,149.6,1015.6,146.4,1013.8,148.5Zm27.4-29.8.7,3.2c3.6-2.5,6.8-2.9,6.1-8.3Z" transform="translate(-23.6 -69)"/></svg>