<svg id="Layer_1" data-name="Layer 1" xmlns="http://www.w3.org/2000/svg" viewBox="0 0 572.6 317.32"><defs><style>.cls-1,.cls-3{font-size:7px;}.cls-1,.cls-4{font-family:MyriadPro-Regular, Myriad Pro;}.cls-2,.cls-3,.cls-7{font-family:KozGoPr6N-Regular-83pv-RKSJ-H, Kozuka Gothic Pr6N;}.cls-5{fill:#f7f7f7;}.cls-6{fill:#f91919;}.cls-7{font-size:16px;fill:#f94848;}.cls-8{letter-spacing:-0.04em;}.cls-9{letter-spacing:-0.08em;}.cls-10{letter-spacing:-0.01em;}.cls-11{letter-spacing:-0.05em;}.cls-12{letter-spacing:-0.03em;}.cls-13{letter-spacing:0em;}.cls-14{letter-spacing:-0.02em;}.cls-15{letter-spacing:-0.11em;}.cls-16{letter-spacing:-0.15em;}.cls-17{letter-spacing:-0.04em;}.cls-18{letter-spacing:-0.11em;}.cls-19{letter-spacing:-0.48em;}.cls-20{letter-spacing:-0.1em;}.cls-21{letter-spacing:-0.05em;}.cls-22{letter-spacing:-0.03em;}.cls-23{letter-spacing:-0.04em;}.cls-24{letter-spacing:-0.02em;}.cls-25{letter-spacing:-0.08em;}.cls-26{letter-spacing:-0.01em;}.cls-27{letter-spacing:-0.05em;}.cls-28{letter-spacing:-0.03em;}.cls-29{letter-spacing:-0.48em;}.cls-30{letter-spacing:-0.1em;}</style></defs><text class="cls-1" transform="translate(446.71 311.16) rotate(180)">E<tspan x="3.44" y="0">X</tspan><tspan x="7.43" y="0">P</tspan><tspan x="11.17" y="0">L</tspan><tspan x="14.19" y="0">O</tspan><tspan x="19.02" y="0">R</tspan><tspan x="22.78" y="0">E</tspan><tspan x="26.23" y="0"> </tspan><tspan x="27.72" y="0">J</tspan><tspan x="30.31" y="0">A</tspan><tspan x="34.61" y="0">P</tspan><tspan x="37.74" y="0">A</tspan><tspan x="42.02" y="0">N</tspan><tspan x="46.63" y="0">S</tspan><tspan x="50.08" y="0"> </tspan><tspan x="51.58" y="0">R</tspan><tspan x="55.33" y="0">I</tspan><tspan x="57" y="0">C</tspan><tspan x="61.07" y="0">H</tspan><tspan x="65.63" y="0"> </tspan><tspan x="67.12" y="0">C</tspan><tspan x="71.2" y="0">U</tspan><tspan x="75.71" y="0">L</tspan><tspan x="78.4" y="0">T</tspan><tspan x="81.9" y="0">U</tspan><tspan x="86.43" y="0">R</tspan><tspan x="90.18" y="0">E</tspan><tspan x="93.64" y="0"> </tspan><tspan x="95.13" y="0">A</tspan><tspan x="99.4" y="0">N</tspan><tspan x="104.02" y="0">D</tspan><tspan x="108.69" y="0"> </tspan><tspan x="109.92" y="0">V</tspan><tspan x="113.82" y="0">I</tspan><tspan x="115.5" y="0">B</tspan><tspan x="119.28" y="0">R</tspan><tspan x="123.1" y="0">A</tspan><tspan x="127.38" y="0">N</tspan><tspan x="131.99" y="0">T</tspan><tspan x="135.47" y="0"> </tspan><tspan x="136.96" y="0">H</tspan><tspan x="141.52" y="0">I</tspan><tspan x="143.19" y="0">S</tspan><tspan x="146.65" y="0">T</tspan><tspan x="149.94" y="0">O</tspan><tspan x="154.78" y="0">R</tspan><tspan x="158.46" y="0">Y</tspan><tspan x="161.57" y="0">.</tspan><tspan x="163.04" y="0"> </tspan><tspan x="164.52" y="0">O</tspan><tspan x="169.33" y="0">P</tspan><tspan x="173.06" y="0">E</tspan><tspan x="176.51" y="0">N</tspan><tspan x="181.13" y="0"> </tspan><tspan x="182.27" y="0">Y</tspan><tspan x="185.81" y="0">O</tspan><tspan x="190.63" y="0">U</tspan><tspan x="195.16" y="0">R</tspan><tspan x="198.94" y="0"> </tspan><tspan x="200.41" y="0">E</tspan><tspan x="203.89" y="0">Y</tspan><tspan x="207.63" y="0">E</tspan><tspan x="211.08" y="0">S</tspan><tspan x="214.53" y="0"> </tspan><tspan x="215.73" y="0">T</tspan><tspan x="219.02" y="0">O</tspan><tspan x="223.87" y="0"> </tspan><tspan x="225.34" y="0">N</tspan><tspan x="229.94" y="0">E</tspan><tspan x="233.47" y="0">W</tspan><tspan x="239.39" y="0"> </tspan><tspan x="240.86" y="0">P</tspan><tspan x="244.59" y="0">O</tspan><tspan x="249.41" y="0">S</tspan><tspan x="252.87" y="0">S</tspan><tspan x="256.32" y="0">I</tspan><tspan x="257.99" y="0">B</tspan><tspan x="261.78" y="0">I</tspan><tspan x="263.45" y="0">L</tspan><tspan x="266.77" y="0">I</tspan><tspan x="268.44" y="0">T</tspan><tspan x="271.92" y="0">I</tspan><tspan x="273.61" y="0">E</tspan><tspan x="277.04" y="0">S</tspan><tspan x="280.5" y="0">.</tspan><tspan class="cls-2" x="281.67" y="0">日</tspan><tspan class="cls-2" x="288.39" y="0">本</tspan><tspan class="cls-2" x="295.41" y="0">の</tspan><tspan class="cls-2" x="302.42" y="0">豊</tspan><tspan class="cls-2" x="309.42" y="0">か</tspan><tspan class="cls-2" x="316.42" y="0">な</tspan><tspan class="cls-2" x="323.42" y="0">文</tspan><tspan class="cls-2" x="330.44" y="0">化</tspan><tspan class="cls-2" x="336.87" y="0">と</tspan><tspan class="cls-2" x="343.31" y="0">活</tspan><tspan class="cls-2" x="350.31" y="0">気</tspan><tspan class="cls-2" x="357.33" y="0">に</tspan><tspan class="cls-2" x="364.25" y="0">満</tspan><tspan class="cls-2" x="370.92" y="0">ち</tspan><tspan class="cls-2" x="377.71" y="0">た</tspan><tspan class="cls-2" x="384.72" y="0">歴</tspan><tspan class="cls-2" x="391.73" y="0">史</tspan><tspan class="cls-2" x="398.56" y="0">を</tspan><tspan class="cls-2" x="405.45" y="0">探</tspan><tspan class="cls-2" x="411.67" y="0">り</tspan><tspan class="cls-2" x="417.63" y="0">ま</tspan><tspan class="cls-2" x="424.37" y="0">す</tspan></text><text class="cls-3" transform="translate(16.47 311.56) rotate(-155.93)">。</text><text class="cls-3" transform="matrix(-0.77, -0.64, 0.64, -0.77, 13.15, 310.62)">新</text><text class="cls-3" transform="translate(8.45 307.04) rotate(-112.84)">し</text><text class="cls-3" transform="translate(6.16 301.29) rotate(-90)">い<tspan x="7" y="0">可</tspan><tspan x="14.02" y="0">能</tspan><tspan x="21.03" y="0">性</tspan><tspan x="28.04" y="0">に</tspan><tspan x="34.83" y="0">目</tspan><tspan x="41.55" y="0">を</tspan><tspan x="48.39" y="0">向</tspan><tspan x="55.4" y="0">け</tspan><tspan x="61.84" y="0">る</tspan><tspan x="68.56" y="0">.</tspan><tspan x="70.1" y="0"> </tspan><tspan x="71.45" y="0">日</tspan><tspan x="78.17" y="0">本</tspan><tspan x="85.17" y="0">の</tspan><tspan x="92.18" y="0">豊</tspan><tspan x="99.2" y="0">か</tspan><tspan x="106.21" y="0">な</tspan><tspan x="113.19" y="0">文</tspan><tspan x="120.21" y="0">化</tspan><tspan x="126.63" y="0">と</tspan><tspan x="133.11" y="0">活</tspan><tspan x="140.11" y="0">気</tspan><tspan x="147.1" y="0">に</tspan><tspan x="154.03" y="0">満</tspan><tspan x="160.69" y="0">ち</tspan><tspan x="167.49" y="0">た</tspan><tspan x="174.5" y="0">歴</tspan><tspan x="181.51" y="0">史</tspan><tspan x="188.36" y="0">を</tspan><tspan x="195.24" y="0">探</tspan><tspan x="201.46" y="0">り</tspan><tspan x="207.42" y="0">ま</tspan><tspan x="214.16" y="0">す</tspan><tspan x="220.38" y="0">。</tspan><tspan x="224.03" y="0">新</tspan><tspan x="230.34" y="0">し</tspan><tspan x="236.98" y="0">い</tspan><tspan x="244" y="0">可</tspan><tspan x="251" y="0">能</tspan><tspan x="258.02" y="0">性</tspan><tspan x="265" y="0">に</tspan><tspan x="271.82" y="0">目</tspan><tspan x="278.53" y="0">を</tspan></text><text class="cls-3" transform="translate(5.8 16.25) rotate(-64.88)">向</text><text class="cls-3" transform="translate(8.45 10.29) rotate(-34.79)">け</text><text class="cls-3" transform="matrix(0.99, -0.11, 0.11, 0.99, 13.28, 6.64)">る</text><text class="cls-3" transform="translate(19.82 6.16)">.<tspan x="1.55" y="0"> </tspan><tspan x="2.88" y="0">日</tspan><tspan x="9.62" y="0">本</tspan><tspan x="16.63" y="0">の</tspan><tspan x="23.63" y="0">豊</tspan><tspan x="30.65" y="0">か</tspan><tspan x="37.63" y="0">な</tspan><tspan x="44.65" y="0">文</tspan><tspan x="51.66" y="0">化</tspan><tspan x="58.1" y="0">と</tspan><tspan x="64.53" y="0">活</tspan><tspan x="71.55" y="0">気</tspan><tspan x="78.55" y="0">に</tspan><tspan x="85.5" y="0">満</tspan><tspan x="92.16" y="0">ち</tspan><tspan x="98.93" y="0">た</tspan><tspan x="105.94" y="0">歴</tspan><tspan x="112.94" y="0">史</tspan><tspan x="119.81" y="0">を</tspan><tspan x="126.67" y="0">探</tspan><tspan x="132.92" y="0">り</tspan><tspan x="138.86" y="0">ま</tspan><tspan x="145.6" y="0">す</tspan><tspan x="151.83" y="0">。</tspan><tspan x="155.46" y="0">新</tspan><tspan x="161.77" y="0">し</tspan><tspan x="168.43" y="0">い</tspan><tspan x="175.44" y="0">可</tspan><tspan x="182.44" y="0">能</tspan><tspan x="189.42" y="0">性</tspan><tspan x="196.43" y="0">に</tspan><tspan x="203.25" y="0">目</tspan><tspan x="209.96" y="0">を</tspan><tspan x="216.83" y="0">向</tspan><tspan x="223.84" y="0">け</tspan><tspan class="cls-4" x="230.7" y="0">O</tspan><tspan class="cls-4" x="235.52" y="0">P</tspan><tspan class="cls-4" x="239.25" y="0">E</tspan><tspan class="cls-4" x="242.71" y="0">N</tspan><tspan class="cls-4" x="247.3" y="0"> </tspan><tspan class="cls-4" x="248.47" y="0">Y</tspan><tspan class="cls-4" x="252.01" y="0">O</tspan><tspan class="cls-4" x="256.83" y="0">U</tspan><tspan class="cls-4" x="261.37" y="0">R</tspan><tspan class="cls-4" x="265.13" y="0"> </tspan><tspan class="cls-4" x="266.61" y="0">E</tspan><tspan class="cls-4" x="270.08" y="0">Y</tspan><tspan class="cls-4" x="273.84" y="0">E</tspan><tspan class="cls-4" x="277.28" y="0">S</tspan><tspan class="cls-4" x="280.71" y="0"> </tspan><tspan class="cls-4" x="281.92" y="0">T</tspan><tspan class="cls-4" x="285.22" y="0">O</tspan><tspan class="cls-4" x="290.03" y="0"> </tspan><tspan class="cls-4" x="291.51" y="0">N</tspan><tspan class="cls-4" x="296.14" y="0">E</tspan><tspan class="cls-4" x="299.64" y="0">W</tspan><tspan class="cls-4" x="305.59" y="0"> </tspan><tspan class="cls-4" x="307.07" y="0">P</tspan><tspan class="cls-4" x="310.79" y="0">O</tspan><tspan class="cls-4" x="315.63" y="0">S</tspan><tspan class="cls-4" x="319.07" y="0">S</tspan><tspan class="cls-4" x="322.51" y="0">I</tspan><tspan class="cls-4" x="324.21" y="0">B</tspan><tspan class="cls-4" x="328" y="0">I</tspan><tspan class="cls-4" x="329.66" y="0">L</tspan><tspan class="cls-4" x="332.98" y="0">I</tspan><tspan class="cls-4" x="334.65" y="0">T</tspan><tspan class="cls-4" x="338.13" y="0">I</tspan><tspan class="cls-4" x="339.81" y="0">E</tspan><tspan class="cls-4" x="343.26" y="0">S</tspan><tspan class="cls-4" x="346.72" y="0">.</tspan><tspan x="347.88" y="0">日</tspan><tspan x="354.59" y="0">本</tspan><tspan x="361.62" y="0">の</tspan><tspan x="368.62" y="0">豊</tspan><tspan x="375.63" y="0">か</tspan><tspan x="382.64" y="0">な</tspan><tspan x="389.63" y="0">文</tspan><tspan x="396.63" y="0">化</tspan><tspan x="403.08" y="0">と</tspan><tspan x="409.53" y="0">活</tspan><tspan x="416.53" y="0">気</tspan></text><text class="cls-3" transform="translate(443.33 6.1) rotate(0.93)">に</text><text class="cls-3" transform="translate(449.84 6.06) rotate(31.01)">満</text><text class="cls-3" transform="matrix(0.5, 0.86, -0.86, 0.5, 455.28, 9.1)">ち</text><text class="cls-3" transform="translate(458.62 14.49) rotate(89.07)">た</text><text class="cls-3" transform="translate(458.68 21.46) rotate(90)">歴<tspan x="7.02" y="0">史</tspan><tspan x="13.88" y="0">を</tspan><tspan x="20.75" y="0">探</tspan><tspan x="26.99" y="0">り</tspan><tspan x="32.94" y="0">ま</tspan><tspan x="39.65" y="0">す</tspan><tspan x="45.9" y="0">。</tspan><tspan x="49.53" y="0">新</tspan><tspan x="55.84" y="0">し</tspan><tspan x="62.5" y="0">い</tspan><tspan x="69.5" y="0">可</tspan><tspan x="76.49" y="0">能</tspan><tspan x="83.49" y="0">性</tspan><tspan x="90.5" y="0">に</tspan><tspan x="97.32" y="0">目</tspan><tspan x="104.04" y="0">を</tspan><tspan x="110.88" y="0">向</tspan><tspan x="117.9" y="0">け</tspan><tspan x="124.33" y="0">る</tspan><tspan x="131.08" y="0">.</tspan><tspan x="132.6" y="0"> </tspan><tspan x="133.95" y="0">日</tspan><tspan x="140.67" y="0">本</tspan><tspan x="147.67" y="0">の</tspan><tspan x="154.68" y="0">豊</tspan><tspan x="161.68" y="0">か</tspan><tspan x="168.7" y="0">な</tspan><tspan x="175.71" y="0">文</tspan><tspan x="182.71" y="0">化</tspan><tspan x="189.14" y="0">と</tspan><tspan x="195.61" y="0">活</tspan><tspan x="202.6" y="0">気</tspan><tspan x="209.62" y="0">に</tspan><tspan x="216.55" y="0">満</tspan><tspan x="223.21" y="0">ち</tspan><tspan x="230.01" y="0">た</tspan><tspan x="237" y="0">歴</tspan><tspan x="244.02" y="0">史</tspan><tspan x="250.87" y="0">を</tspan><tspan x="257.75" y="0">探</tspan><tspan x="263.98" y="0">り</tspan><tspan x="269.93" y="0">ま</tspan></text><text class="cls-3" transform="matrix(-0.18, 0.98, -0.98, -0.18, 459.12, 297.94)">す</text><text class="cls-3" transform="matrix(-0.61, 0.79, -0.79, -0.61, 458.32, 303.72)">。</text><text class="cls-3" transform="translate(456.64 306.71) rotate(143.33)">新</text><text x="-17.32" y="-75.84"/><text x="-17.32" y="-75.84"/><text x="-17.32" y="-75.84"/><rect class="cls-5" x="13.95" y="12.16" width="433.72" height="292.33" rx="11.46"/><ellipse cx="236.68" cy="157.66" rx="104" ry="104.5"/><circle class="cls-6" cx="236.68" cy="157.16" r="102"/><text class="cls-7" transform="translate(220.83 87.96)"><tspan class="cls-8">日</tspan><tspan x="-39.8" y="19.2">本の豊かな文</tspan><tspan class="cls-9" x="-56.29" y="38.4">化と</tspan><tspan x="-26.85" y="38.4">活気</tspan><tspan class="cls-10" x="5.15" y="38.4">に</tspan><tspan class="cls-11" x="20.99" y="38.4">満</tspan><tspan class="cls-12" x="36.19" y="38.4">ち</tspan><tspan class="cls-13" x="51.71" y="38.4">た歴</tspan><tspan class="cls-14"><tspan x="-65.19" y="57.6">史を</tspan><tspan class="cls-15" x="-33.83" y="57.6">探</tspan><tspan class="cls-16" x="-19.59" y="57.6">り</tspan><tspan class="cls-17" x="-5.99" y="57.6">ま</tspan><tspan class="cls-18" x="9.37" y="57.6">す</tspan><tspan class="cls-19" x="23.61" y="57.6">。</tspan><tspan class="cls-20" x="31.93" y="57.6">新</tspan><tspan class="cls-21" x="46.33" y="57.6">し</tspan><tspan class="cls-13" x="61.53" y="57.6">い可</tspan></tspan><tspan x="-68.91" y="76.8">能性</tspan><tspan class="cls-22" x="-36.91" y="76.8">に</tspan><tspan class="cls-23" x="-21.39" y="76.8">目</tspan><tspan class="cls-24" x="-6.03" y="76.8">を</tspan><tspan x="9.65" y="76.8">向</tspan><tspan class="cls-25" x="25.65" y="76.8">け</tspan><tspan class="cls-23" x="40.37" y="76.8">る</tspan><tspan x="55.73" y="76.8">の豊</tspan><tspan x="-65.6" y="96">かな文</tspan><tspan class="cls-9" x="-17.6" y="96">化と</tspan><tspan x="11.84" y="96">活気</tspan><tspan class="cls-26" x="43.84" y="96">に</tspan><tspan class="cls-27" x="59.68" y="96">満</tspan><tspan class="cls-28" x="74.88" y="96">ち</tspan><tspan x="-57.11" y="115.2">た歴</tspan><tspan class="cls-14" x="-25.11" y="115.2">史を</tspan><tspan class="cls-15" x="6.25" y="115.2">探</tspan><tspan class="cls-16" x="20.49" y="115.2">り</tspan><tspan class="cls-17" x="34.09" y="115.2">ま</tspan><tspan class="cls-18" x="49.45" y="115.2">す</tspan><tspan class="cls-29" x="63.69" y="115.2">。</tspan><tspan class="cls-30" x="-41.3" y="134.4">新</tspan><tspan class="cls-11" x="-26.9" y="134.4">し</tspan><tspan x="-11.7" y="134.4">い可能性</tspan><tspan class="cls-10" x="52.3" y="134.4">に</tspan><tspan class="cls-8"><tspan x="-5.88" y="153.6">目</tspan><tspan class="cls-24" x="9.48" y="153.6">を</tspan></tspan></text></svg>