<svg id="Capa_1" data-name="Capa 1" xmlns="http://www.w3.org/2000/svg" viewBox="0 0 512 512"><defs><style>.cls-1{fill:#fff;}.cls-2{fill:#fc004a;}</style></defs><circle class="cls-1" cx="256" cy="256" r="236.17"/><path class="cls-1" d="M256,512C114.85,512,0,397.17,0,256S114.85,0,256,0,512,114.85,512,256,397.17,512,256,512Zm0-472.34C136.71,39.66,39.66,136.71,39.66,256S136.71,472.34,256,472.34,472.34,375.27,472.34,256,375.3,39.66,256,39.66Z"/><path class="cls-2" d="M369.23,311.13a19.83,19.83,0,0,1-28,0L256.2,226.06l-85.07,85.07a19.83,19.83,0,0,1-28-28L242.32,184a19.81,19.81,0,0,1,28,0l99.15,99.15A19.83,19.83,0,0,1,369.23,311.13Z"/></svg>