<?xml version="1.0" encoding="utf-8"?>
<!-- Generator: Adobe Illustrator 24.3.0, SVG Export Plug-In . SVG Version: 6.00 Build 0)  -->
<svg version="1.1" id="Layer_1" xmlns="http://www.w3.org/2000/svg" xmlns:xlink="http://www.w3.org/1999/xlink" x="0px" y="0px"
	 viewBox="0 0 500 500" style="enable-background:new 0 0 500 500;" xml:space="preserve">
<style type="text/css">
	.st0{font-family:'ArialMT';}
	.st1{font-size:7px;}
	.st2{font-family:'KozGoPr6N-Regular-83pv-RKSJ-H';}
	.st3{font-size:7.0085px;}
	.st4{font-size:6.9726px;}
	.st5{font-size:7.0002px;}
	.st6{font-size:6.9635px;}
	.st7{font-size:6.9745px;}
	.st8{font-size:6.9867px;}
	.st9{fill:#F7F7F7;}
	.st10{fill:#F91919;}
	.st11{fill:#F94848;}
	.st12{font-size:16px;}
	.st13{letter-spacing:-2;}
	.st14{letter-spacing:-6;}
</style>
<text transform="matrix(-1 0 0 -1 464.11 402.5625)" class="st0 st1">E</text>
<text transform="matrix(-1 0 0 -1 460.6695 402.5625)" class="st0 st1">X</text>
<text transform="matrix(-1 0 0 -1 456.6803 402.5625)" class="st0 st1">P</text>
<text transform="matrix(-1 0 0 -1 452.94 402.5625)" class="st0 st1">L</text>
<text transform="matrix(-1 0 0 -1 449.9195 402.5625)" class="st0 st1">O</text>
<text transform="matrix(-1 0 0 -1 445.0904 402.5625)" class="st0 st1">R</text>
<text transform="matrix(-1 0 0 -1 441.3297 402.5625)" class="st0 st1">E</text>
<text transform="matrix(-1 0 0 -1 437.8805 402.5625)" class="st0 st1"> </text>
<text transform="matrix(-1 0 0 -1 436.3902 402.5625)" class="st0 st1">J</text>
<text transform="matrix(-1 0 0 -1 433.8004 402.5625)" class="st0 st1">A</text>
<text transform="matrix(-1 0 0 -1 429.4996 402.5625)" class="st0 st1">P</text>
<text transform="matrix(-1 0 0 -1 426.3697 402.5625)" class="st0 st1">A</text>
<text transform="matrix(-1 0 0 -1 422.0904 402.5625)" class="st0 st1">N</text>
<text transform="matrix(-1 0 0 -1 417.4801 402.5625)" class="st0 st1">S</text>
<text transform="matrix(-1 0 0 -1 414.0299 402.5625)" class="st0 st1"> </text>
<text transform="matrix(-1 0 0 -1 412.5299 402.5625)" class="st0 st1">R</text>
<text transform="matrix(-1 0 0 -1 408.7799 402.5625)" class="st0 st1">I</text>
<text transform="matrix(-1 0 0 -1 407.11 402.5625)" class="st0 st1">C</text>
<text transform="matrix(-1 0 0 -1 403.0396 402.5625)" class="st0 st1">H</text>
<text transform="matrix(-1 0 0 -1 398.4801 402.5625)" class="st0 st1"> </text>
<text transform="matrix(-1 0 0 -1 396.9898 402.5625)" class="st0 st1">C</text>
<text transform="matrix(-1 0 0 -1 392.9098 402.5625)" class="st0 st1">U</text>
<text transform="matrix(-1 0 0 -1 388.4 402.5625)" class="st0 st1">L</text>
<text transform="matrix(-1 0 0 -1 385.7096 402.5625)" class="st0 st1">T</text>
<text transform="matrix(-1 0 0 -1 382.2096 402.5625)" class="st0 st1">U</text>
<text transform="matrix(-1 0 0 -1 377.6803 402.5625)" class="st0 st1">R</text>
<text transform="matrix(-1 0 0 -1 373.9303 402.5625)" class="st0 st1">E</text>
<text transform="matrix(-1 0 0 -1 370.4703 402.5625)" class="st0 st1"> </text>
<text transform="matrix(-1 0 0 -1 368.9801 402.5625)" class="st0 st1">A</text>
<text transform="matrix(-1 0 0 -1 364.7096 402.5625)" class="st0 st1">N</text>
<text transform="matrix(-1 0 0 -1 360.0904 402.5625)" class="st0 st1">D</text>
<text transform="matrix(-1 0 0 -1 355.4195 402.5625)" class="st0 st1"> </text>
<text transform="matrix(-1 0 0 -1 354.19 402.5625)" class="st0 st1">V</text>
<text transform="matrix(-1 0 0 -1 350.2896 402.5625)" class="st0 st1">I</text>
<text transform="matrix(-1 0 0 -1 348.61 402.5625)" class="st0 st1">B</text>
<text transform="matrix(-1 0 0 -1 344.8297 402.5625)" class="st0 st1">R</text>
<text transform="matrix(-1 0 0 -1 341.0103 402.5625)" class="st0 st1">A</text>
<text transform="matrix(-1 0 0 -1 336.7301 402.5625)" class="st0 st1">N</text>
<text transform="matrix(-1 0 0 -1 332.1197 402.5625)" class="st0 st1">T</text>
<text transform="matrix(-1 0 0 -1 328.6402 402.5625)" class="st0 st1"> </text>
<text transform="matrix(-1 0 0 -1 327.15 402.5625)" class="st0 st1">H</text>
<text transform="matrix(-1 0 0 -1 322.5904 402.5625)" class="st0 st1">I</text>
<text transform="matrix(-1 0 0 -1 320.9195 402.5625)" class="st0 st1">S</text>
<text transform="matrix(-1 0 0 -1 317.4596 402.5625)" class="st0 st1">T</text>
<text transform="matrix(-1 0 0 -1 314.1695 402.5625)" class="st0 st1">O</text>
<text transform="matrix(-1 0 0 -1 309.3297 402.5625)" class="st0 st1">R</text>
<text transform="matrix(-1 0 0 -1 305.65 402.5625)" class="st0 st1">Y</text>
<text transform="matrix(-1 0 0 -1 302.5396 402.5625)" class="st0 st1">.</text>
<text transform="matrix(-1 0 0 -1 301.0699 402.5625)" class="st0 st1"> </text>
<text transform="matrix(-1 0 0 -1 299.5904 402.5625)" class="st0 st1">O</text>
<text transform="matrix(-1 0 0 -1 294.7799 402.5625)" class="st0 st1">P</text>
<text transform="matrix(-1 0 0 -1 291.0504 402.5625)" class="st0 st1">E</text>
<text transform="matrix(-1 0 0 -1 287.6002 402.5625)" class="st0 st1">N</text>
<text transform="matrix(-1 0 0 -1 282.9801 402.5625)" class="st0 st1"> </text>
<text transform="matrix(-1 0 0 -1 281.8404 402.5625)" class="st0 st1">Y</text>
<text transform="matrix(-1 0 0 -1 278.3004 402.5625)" class="st0 st1">O</text>
<text transform="matrix(-1 0 0 -1 273.4801 402.5625)" class="st0 st1">U</text>
<text transform="matrix(-1 0 0 -1 268.9498 402.5625)" class="st0 st1">R</text>
<text transform="matrix(-1 0 0 -1 265.1695 402.5625)" class="st0 st1"> </text>
<text transform="matrix(-1 0 0 -1 263.6998 402.5625)" class="st0 st1">E</text>
<text transform="matrix(-1 0 0 -1 260.2203 402.5625)" class="st0 st1">Y</text>
<text transform="matrix(-1 0 0 -1 256.4801 402.5625)" class="st0 st1">E</text>
<text transform="matrix(-1 0 0 -1 253.0299 402.5625)" class="st0 st1">S</text>
<text transform="matrix(-1 0 0 -1 249.5797 402.5625)" class="st0 st1"> </text>
<text transform="matrix(-1 0 0 -1 248.3805 402.5625)" class="st0 st1">T</text>
<text transform="matrix(-1 0 0 -1 245.0904 402.5625)" class="st0 st1">O</text>
<text transform="matrix(-1 0 0 -1 240.2398 402.5625)" class="st0 st1"> </text>
<text transform="matrix(-1 0 0 -1 238.7701 402.5625)" class="st0 st1">N</text>
<text transform="matrix(-1 0 0 -1 234.1695 402.5625)" class="st0 st1">E</text>
<text transform="matrix(-1 0 0 -1 230.6402 402.5625)" class="st0 st1">W</text>
<text transform="matrix(-1 0 0 -1 224.7203 402.5625)" class="st0 st1"> </text>
<text transform="matrix(-1 0 0 -1 223.2496 402.5625)" class="st0 st1">P</text>
<text transform="matrix(-1 0 0 -1 219.5201 402.5625)" class="st0 st1">O</text>
<text transform="matrix(-1 0 0 -1 214.6998 402.5625)" class="st0 st1">S</text>
<text transform="matrix(-1 0 0 -1 211.2398 402.5625)" class="st0 st1">S</text>
<text transform="matrix(-1 0 0 -1 207.7896 402.5625)" class="st0 st1">I</text>
<text transform="matrix(-1 0 0 -1 206.1197 402.5625)" class="st0 st1">B</text>
<text transform="matrix(-1 0 0 -1 202.3297 402.5625)" class="st0 st1">I</text>
<text transform="matrix(-1 0 0 -1 200.6598 402.5625)" class="st0 st1">L</text>
<text transform="matrix(-1 0 0 -1 197.3404 402.5625)" class="st0 st1">I</text>
<text transform="matrix(-1 0 0 -1 195.6695 402.5625)" class="st0 st1">T</text>
<text transform="matrix(-1 0 0 -1 192.19 402.5625)" class="st0 st1">I</text>
<text transform="matrix(-1 0 0 -1 190.4996 402.5625)" class="st0 st1">E</text>
<text transform="matrix(-1 0 0 -1 187.0699 402.5625)" class="st0 st1">S</text>
<text transform="matrix(-1 0 0 -1 183.61 402.5625)" class="st0 st1">.</text>
<text transform="matrix(-1 0 0 -1 182.44 402.5625)" class="st2 st1">日</text>
<text transform="matrix(-1 0 0 -1 175.7203 402.5625)" class="st2 st1">本</text>
<text transform="matrix(-1 0 0 -1 168.6998 402.5625)" class="st2 st1">の</text>
<text transform="matrix(-1 0 0 -1 161.69 402.5625)" class="st2 st1">豊</text>
<text transform="matrix(-1 0 0 -1 154.69 402.5625)" class="st2 st1">か</text>
<text transform="matrix(-1 0 0 -1 147.69 402.5625)" class="st2 st1">な</text>
<text transform="matrix(-1 0 0 -1 140.69 402.5625)" class="st2 st1">文</text>
<text transform="matrix(-1 0 0 -1 133.6695 402.5625)" class="st2 st1">化</text>
<text transform="matrix(-1 0 0 -1 127.2398 402.5625)" class="st2 st1">と</text>
<text transform="matrix(-1 0 0 -1 120.8004 402.5625)" class="st2 st1">活</text>
<text transform="matrix(-1 0 0 -1 113.8004 402.5625)" class="st2 st1">気</text>
<text transform="matrix(-1 0 0 -1 106.7799 402.5625)" class="st2 st1">に</text>
<text transform="matrix(-1 0 0 -1 99.86 402.5625)" class="st2 st1">満</text>
<text transform="matrix(-1 0 0 -1 93.19 402.5625)" class="st2 st1">ち</text>
<text transform="matrix(-1 0 0 -1 86.4 402.5625)" class="st2 st1">た</text>
<text transform="matrix(-1 0 0 -1 79.3902 402.5625)" class="st2 st1">歴</text>
<text transform="matrix(-1 0 0 -1 72.3805 402.5625)" class="st2 st1">史</text>
<text transform="matrix(-1 0 0 -1 65.5504 402.5625)" class="st2 st1">を</text>
<text transform="matrix(-1 0 0 -1 58.6598 402.5625)" class="st2 st1">探</text>
<text transform="matrix(-1 0 0 -1 52.44 402.5625)" class="st2 st1">り</text>
<text transform="matrix(-1 0 0 -1 46.4801 402.5625)" class="st2 st1">ま</text>
<text transform="matrix(-1 0 0 -1 39.7398 402.5625)" class="st2 st1">す</text>
<text transform="matrix(-0.913 -0.4079 0.4079 -0.913 33.8704 402.9611)" class="st2 st1">。</text>
<text transform="matrix(-0.769 -0.6392 0.6392 -0.769 30.5509 402.024)" class="st2 st3">新</text>
<text transform="matrix(-0.3882 -0.9216 0.9216 -0.3882 25.85 398.443)" class="st2 st1">し</text>
<text transform="matrix(6.123234e-17 -1 1 6.123234e-17 23.56 392.6914)" class="st2 st1">い</text>
<text transform="matrix(6.123234e-17 -1 1 6.123234e-17 23.56 385.6914)" class="st2 st1">可</text>
<text transform="matrix(6.123234e-17 -1 1 6.123234e-17 23.56 378.6719)" class="st2 st1">能</text>
<text transform="matrix(6.123234e-17 -1 1 6.123234e-17 23.56 371.6611)" class="st2 st1">性</text>
<text transform="matrix(6.123234e-17 -1 1 6.123234e-17 23.56 364.6523)" class="st2 st1">に</text>
<text transform="matrix(6.123234e-17 -1 1 6.123234e-17 23.56 357.8613)" class="st2 st1">目</text>
<text transform="matrix(6.123234e-17 -1 1 6.123234e-17 23.56 351.1426)" class="st2 st1">を</text>
<text transform="matrix(6.123234e-17 -1 1 6.123234e-17 23.56 344.3018)" class="st2 st1">向</text>
<text transform="matrix(6.123234e-17 -1 1 6.123234e-17 23.56 337.291)" class="st2 st1">け</text>
<text transform="matrix(6.123234e-17 -1 1 6.123234e-17 23.56 330.8525)" class="st2 st1">る</text>
<text transform="matrix(6.123234e-17 -1 1 6.123234e-17 23.56 324.1318)" class="st0 st1">.</text>
<text transform="matrix(6.123234e-17 -1 1 6.123234e-17 23.56 322.5928)" class="st0 st1"> </text>
<text transform="matrix(6.123234e-17 -1 1 6.123234e-17 23.56 321.2422)" class="st2 st1">日</text>
<text transform="matrix(6.123234e-17 -1 1 6.123234e-17 23.56 314.5225)" class="st2 st1">本</text>
<text transform="matrix(6.123234e-17 -1 1 6.123234e-17 23.56 307.5225)" class="st2 st1">の</text>
<text transform="matrix(6.123234e-17 -1 1 6.123234e-17 23.56 300.5117)" class="st2 st1">豊</text>
<text transform="matrix(6.123234e-17 -1 1 6.123234e-17 23.56 293.4922)" class="st2 st1">か</text>
<text transform="matrix(6.123234e-17 -1 1 6.123234e-17 23.56 286.4814)" class="st2 st1">な</text>
<text transform="matrix(6.123234e-17 -1 1 6.123234e-17 23.56 279.502)" class="st2 st1">文</text>
<text transform="matrix(6.123234e-17 -1 1 6.123234e-17 23.56 272.4814)" class="st2 st1">化</text>
<text transform="matrix(6.123234e-17 -1 1 6.123234e-17 23.56 266.0615)" class="st2 st1">と</text>
<text transform="matrix(6.123234e-17 -1 1 6.123234e-17 23.56 259.5811)" class="st2 st1">活</text>
<text transform="matrix(6.123234e-17 -1 1 6.123234e-17 23.56 252.5811)" class="st2 st1">気</text>
<text transform="matrix(6.123234e-17 -1 1 6.123234e-17 23.56 245.5928)" class="st2 st1">に</text>
<text transform="matrix(6.123234e-17 -1 1 6.123234e-17 23.56 238.6611)" class="st2 st1">満</text>
<text transform="matrix(6.123234e-17 -1 1 6.123234e-17 23.56 232.002)" class="st2 st1">ち</text>
<text transform="matrix(6.123234e-17 -1 1 6.123234e-17 23.56 225.2021)" class="st2 st1">た</text>
<text transform="matrix(6.123234e-17 -1 1 6.123234e-17 23.56 218.1924)" class="st2 st1">歴</text>
<text transform="matrix(6.123234e-17 -1 1 6.123234e-17 23.56 211.1816)" class="st2 st1">史</text>
<text transform="matrix(6.123234e-17 -1 1 6.123234e-17 23.56 204.3311)" class="st2 st1">を</text>
<text transform="matrix(6.123234e-17 -1 1 6.123234e-17 23.56 197.4521)" class="st2 st1">探</text>
<text transform="matrix(6.123234e-17 -1 1 6.123234e-17 23.56 191.2314)" class="st2 st1">り</text>
<text transform="matrix(6.123234e-17 -1 1 6.123234e-17 23.56 185.2725)" class="st2 st1">ま</text>
<text transform="matrix(6.123234e-17 -1 1 6.123234e-17 23.56 178.5312)" class="st2 st1">す</text>
<text transform="matrix(6.123234e-17 -1 1 6.123234e-17 23.56 172.3115)" class="st2 st1">。</text>
<text transform="matrix(6.123234e-17 -1 1 6.123234e-17 23.56 168.6611)" class="st2 st1">新</text>
<text transform="matrix(6.123234e-17 -1 1 6.123234e-17 23.56 162.3525)" class="st2 st1">し</text>
<text transform="matrix(6.123234e-17 -1 1 6.123234e-17 23.56 155.7109)" class="st2 st1">い</text>
<text transform="matrix(6.123234e-17 -1 1 6.123234e-17 23.56 148.6924)" class="st2 st1">可</text>
<text transform="matrix(6.123234e-17 -1 1 6.123234e-17 23.56 141.6924)" class="st2 st1">能</text>
<text transform="matrix(6.123234e-17 -1 1 6.123234e-17 23.56 134.6719)" class="st2 st1">性</text>
<text transform="matrix(6.123234e-17 -1 1 6.123234e-17 23.56 127.6924)" class="st2 st1">に</text>
<text transform="matrix(6.123234e-17 -1 1 6.123234e-17 23.56 120.8721)" class="st2 st1">目</text>
<text transform="matrix(6.123234e-17 -1 1 6.123234e-17 23.56 114.1611)" class="st2 st1">を</text>
<text transform="matrix(0.4245 -0.9054 0.9054 0.4245 23.1999 107.6522)" class="st2 st1">向</text>
<text transform="matrix(0.8212 -0.5706 0.5706 0.8212 25.8501 101.6922)" class="st2 st1">け</text>
<text transform="matrix(0.9939 -0.1104 0.1104 0.9939 30.6802 98.0412)" class="st2 st4">る</text>
<text transform="matrix(1 0 0 1 37.22 97.5619)" class="st0 st1">.</text>
<text transform="matrix(1 0 0 1 38.77 97.5619)" class="st0 st1"> </text>
<text transform="matrix(1 0 0 1 40.1 97.5619)" class="st2 st1">日</text>
<text transform="matrix(1 0 0 1 46.84 97.5619)" class="st2 st1">本</text>
<text transform="matrix(1 0 0 1 53.85 97.5619)" class="st2 st1">の</text>
<text transform="matrix(1 0 0 1 60.85 97.5619)" class="st2 st1">豊</text>
<text transform="matrix(1 0 0 1 67.87 97.5619)" class="st2 st1">か</text>
<text transform="matrix(1 0 0 1 74.85 97.5619)" class="st2 st1">な</text>
<text transform="matrix(1 0 0 1 81.87 97.5619)" class="st2 st1">文</text>
<text transform="matrix(1 0 0 1 88.88 97.5619)" class="st2 st1">化</text>
<text transform="matrix(1 0 0 1 95.32 97.5619)" class="st2 st1">と</text>
<text transform="matrix(1 0 0 1 101.75 97.5619)" class="st2 st1">活</text>
<text transform="matrix(1 0 0 1 108.77 97.5619)" class="st2 st1">気</text>
<text transform="matrix(1 0 0 1 115.77 97.5619)" class="st2 st1">に</text>
<text transform="matrix(1 0 0 1 122.72 97.5619)" class="st2 st1">満</text>
<text transform="matrix(1 0 0 1 129.38 97.5619)" class="st2 st1">ち</text>
<text transform="matrix(1 0 0 1 136.15 97.5619)" class="st2 st1">た</text>
<text transform="matrix(1 0 0 1 143.16 97.5619)" class="st2 st1">歴</text>
<text transform="matrix(1 0 0 1 150.16 97.5619)" class="st2 st1">史</text>
<text transform="matrix(1 0 0 1 157.03 97.5619)" class="st2 st1">を</text>
<text transform="matrix(1 0 0 1 163.89 97.5619)" class="st2 st1">探</text>
<text transform="matrix(1 0 0 1 170.14 97.5619)" class="st2 st1">り</text>
<text transform="matrix(1 0 0 1 176.08 97.5619)" class="st2 st1">ま</text>
<text transform="matrix(1 0 0 1 182.82 97.5619)" class="st2 st1">す</text>
<text transform="matrix(1 0 0 1 189.05 97.5619)" class="st2 st1">。</text>
<text transform="matrix(1 0 0 1 192.68 97.5619)" class="st2 st1">新</text>
<text transform="matrix(1 0 0 1 198.99 97.5619)" class="st2 st1">し</text>
<text transform="matrix(1 0 0 1 205.65 97.5619)" class="st2 st1">い</text>
<text transform="matrix(1 0 0 1 212.66 97.5619)" class="st2 st1">可</text>
<text transform="matrix(1 0 0 1 219.66 97.5619)" class="st2 st1">能</text>
<text transform="matrix(1 0 0 1 226.64 97.5619)" class="st2 st1">性</text>
<text transform="matrix(1 0 0 1 233.65 97.5619)" class="st2 st1">に</text>
<text transform="matrix(1 0 0 1 240.47 97.5619)" class="st2 st1">目</text>
<text transform="matrix(1 0 0 1 247.18 97.5619)" class="st2 st1">を</text>
<text transform="matrix(1 0 0 1 254.05 97.5619)" class="st2 st1">向</text>
<text transform="matrix(1 0 0 1 261.06 97.5619)" class="st2 st1">け</text>
<text transform="matrix(1 0 0 1 267.92 97.5619)" class="st0 st1">O</text>
<text transform="matrix(1 0 0 1 272.74 97.5619)" class="st0 st1">P</text>
<text transform="matrix(1 0 0 1 276.47 97.5619)" class="st0 st1">E</text>
<text transform="matrix(1 0 0 1 279.93 97.5619)" class="st0 st1">N</text>
<text transform="matrix(1 0 0 1 284.52 97.5619)" class="st0 st1"> </text>
<text transform="matrix(1 0 0 1 285.69 97.5619)" class="st0 st1">Y</text>
<text transform="matrix(1 0 0 1 289.23 97.5619)" class="st0 st1">O</text>
<text transform="matrix(1 0 0 1 294.05 97.5619)" class="st0 st1">U</text>
<text transform="matrix(1 0 0 1 298.59 97.5619)" class="st0 st1">R</text>
<text transform="matrix(1 0 0 1 302.35 97.5619)" class="st0 st1"> </text>
<text transform="matrix(1 0 0 1 303.83 97.5619)" class="st0 st1">E</text>
<text transform="matrix(1 0 0 1 307.3 97.5619)" class="st0 st1">Y</text>
<text transform="matrix(1 0 0 1 311.06 97.5619)" class="st0 st1">E</text>
<text transform="matrix(1 0 0 1 314.5 97.5619)" class="st0 st1">S</text>
<text transform="matrix(1 0 0 1 317.93 97.5619)" class="st0 st1"> </text>
<text transform="matrix(1 0 0 1 319.14 97.5619)" class="st0 st1">T</text>
<text transform="matrix(1 0 0 1 322.44 97.5619)" class="st0 st1">O</text>
<text transform="matrix(1 0 0 1 327.25 97.5619)" class="st0 st1"> </text>
<text transform="matrix(1 0 0 1 328.73 97.5619)" class="st0 st1">N</text>
<text transform="matrix(1 0 0 1 333.36 97.5619)" class="st0 st1">E</text>
<text transform="matrix(1 0 0 1 336.86 97.5619)" class="st0 st1">W</text>
<text transform="matrix(1 0 0 1 342.81 97.5619)" class="st0 st1"> </text>
<text transform="matrix(1 0 0 1 344.29 97.5619)" class="st0 st1">P</text>
<text transform="matrix(1 0 0 1 348.01 97.5619)" class="st0 st1">O</text>
<text transform="matrix(1 0 0 1 352.85 97.5619)" class="st0 st1">S</text>
<text transform="matrix(1 0 0 1 356.29 97.5619)" class="st0 st1">S</text>
<text transform="matrix(1 0 0 1 359.73 97.5619)" class="st0 st1">I</text>
<text transform="matrix(1 0 0 1 361.43 97.5619)" class="st0 st1">B</text>
<text transform="matrix(1 0 0 1 365.22 97.5619)" class="st0 st1">I</text>
<text transform="matrix(1 0 0 1 366.88 97.5619)" class="st0 st1">L</text>
<text transform="matrix(1 0 0 1 370.2 97.5619)" class="st0 st1">I</text>
<text transform="matrix(1 0 0 1 371.87 97.5619)" class="st0 st1">T</text>
<text transform="matrix(1 0 0 1 375.35 97.5619)" class="st0 st1">I</text>
<text transform="matrix(1 0 0 1 377.03 97.5619)" class="st0 st1">E</text>
<text transform="matrix(1 0 0 1 380.48 97.5619)" class="st0 st1">S</text>
<text transform="matrix(1 0 0 1 383.94 97.5619)" class="st0 st1">.</text>
<text transform="matrix(1 0 0 1 385.1 97.5619)" class="st2 st1">日</text>
<text transform="matrix(1 0 0 1 391.81 97.5619)" class="st2 st1">本</text>
<text transform="matrix(1 0 0 1 398.84 97.5619)" class="st2 st1">の</text>
<text transform="matrix(1 0 0 1 405.84 97.5619)" class="st2 st1">豊</text>
<text transform="matrix(1 0 0 1 412.85 97.5619)" class="st2 st1">か</text>
<text transform="matrix(1 0 0 1 419.86 97.5619)" class="st2 st1">な</text>
<text transform="matrix(1 0 0 1 426.85 97.5619)" class="st2 st1">文</text>
<text transform="matrix(1 0 0 1 433.85 97.5619)" class="st2 st1">化</text>
<text transform="matrix(1 0 0 1 440.3 97.5619)" class="st2 st1">と</text>
<text transform="matrix(1 0 0 1 446.75 97.5619)" class="st2 st1">活</text>
<text transform="matrix(1 0 0 1 453.75 97.5619)" class="st2 st1">気</text>
<text transform="matrix(0.9999 1.623034e-02 -1.623034e-02 0.9999 460.7302 97.502)" class="st2 st5">に</text>
<text transform="matrix(0.8571 0.5152 -0.5152 0.8571 467.24 97.4618)" class="st2 st1">満</text>
<text transform="matrix(0.5026 0.8645 -0.8645 0.5026 472.6797 100.5021)" class="st2 st6">ち</text>
<text transform="matrix(1.623035e-02 0.9999 -0.9999 1.623035e-02 476.0186 105.892)" class="st2 st5">た</text>
<text transform="matrix(6.123234e-17 1 -1 6.123234e-17 476.0797 112.8619)" class="st2 st1">歴</text>
<text transform="matrix(6.123234e-17 1 -1 6.123234e-17 476.0797 119.8819)" class="st2 st1">史</text>
<text transform="matrix(6.123234e-17 1 -1 6.123234e-17 476.0797 126.7419)" class="st2 st1">を</text>
<text transform="matrix(6.123234e-17 1 -1 6.123234e-17 476.0797 133.6118)" class="st2 st1">探</text>
<text transform="matrix(6.123234e-17 1 -1 6.123234e-17 476.0797 139.8519)" class="st2 st1">り</text>
<text transform="matrix(6.123234e-17 1 -1 6.123234e-17 476.0797 145.8018)" class="st2 st1">ま</text>
<text transform="matrix(6.123234e-17 1 -1 6.123234e-17 476.0797 152.5119)" class="st2 st1">す</text>
<text transform="matrix(6.123234e-17 1 -1 6.123234e-17 476.0797 158.7619)" class="st2 st1">。</text>
<text transform="matrix(6.123234e-17 1 -1 6.123234e-17 476.0797 162.3918)" class="st2 st1">新</text>
<text transform="matrix(6.123234e-17 1 -1 6.123234e-17 476.0797 168.7019)" class="st2 st1">し</text>
<text transform="matrix(6.123234e-17 1 -1 6.123234e-17 476.0797 175.3618)" class="st2 st1">い</text>
<text transform="matrix(6.123234e-17 1 -1 6.123234e-17 476.0797 182.3618)" class="st2 st1">可</text>
<text transform="matrix(6.123234e-17 1 -1 6.123234e-17 476.0797 189.3519)" class="st2 st1">能</text>
<text transform="matrix(6.123234e-17 1 -1 6.123234e-17 476.0797 196.3519)" class="st2 st1">性</text>
<text transform="matrix(6.123234e-17 1 -1 6.123234e-17 476.0797 203.3618)" class="st2 st1">に</text>
<text transform="matrix(6.123234e-17 1 -1 6.123234e-17 476.0797 210.1819)" class="st2 st1">目</text>
<text transform="matrix(6.123234e-17 1 -1 6.123234e-17 476.0797 216.9019)" class="st2 st1">を</text>
<text transform="matrix(6.123234e-17 1 -1 6.123234e-17 476.0797 223.7419)" class="st2 st1">向</text>
<text transform="matrix(6.123234e-17 1 -1 6.123234e-17 476.0797 230.7619)" class="st2 st1">け</text>
<text transform="matrix(6.123234e-17 1 -1 6.123234e-17 476.0797 237.1919)" class="st2 st1">る</text>
<text transform="matrix(6.123234e-17 1 -1 6.123234e-17 476.0797 243.9419)" class="st0 st1">.</text>
<text transform="matrix(6.123234e-17 1 -1 6.123234e-17 476.0797 245.4619)" class="st0 st1"> </text>
<text transform="matrix(6.123234e-17 1 -1 6.123234e-17 476.0797 246.8119)" class="st2 st1">日</text>
<text transform="matrix(6.123234e-17 1 -1 6.123234e-17 476.0797 253.5319)" class="st2 st1">本</text>
<text transform="matrix(6.123234e-17 1 -1 6.123234e-17 476.0797 260.5319)" class="st2 st1">の</text>
<text transform="matrix(6.123234e-17 1 -1 6.123234e-17 476.0797 267.5418)" class="st2 st1">豊</text>
<text transform="matrix(6.123234e-17 1 -1 6.123234e-17 476.0797 274.5418)" class="st2 st1">か</text>
<text transform="matrix(6.123234e-17 1 -1 6.123234e-17 476.0797 281.5619)" class="st2 st1">な</text>
<text transform="matrix(6.123234e-17 1 -1 6.123234e-17 476.0797 288.5719)" class="st2 st1">文</text>
<text transform="matrix(6.123234e-17 1 -1 6.123234e-17 476.0797 295.5719)" class="st2 st1">化</text>
<text transform="matrix(6.123234e-17 1 -1 6.123234e-17 476.0797 302.0019)" class="st2 st1">と</text>
<text transform="matrix(6.123234e-17 1 -1 6.123234e-17 476.0797 308.4719)" class="st2 st1">活</text>
<text transform="matrix(6.123234e-17 1 -1 6.123234e-17 476.0797 315.4619)" class="st2 st1">気</text>
<text transform="matrix(6.123234e-17 1 -1 6.123234e-17 476.0797 322.4818)" class="st2 st1">に</text>
<text transform="matrix(6.123234e-17 1 -1 6.123234e-17 476.0797 329.4119)" class="st2 st1">満</text>
<text transform="matrix(6.123234e-17 1 -1 6.123234e-17 476.0797 336.0719)" class="st2 st1">ち</text>
<text transform="matrix(6.123234e-17 1 -1 6.123234e-17 476.0797 342.8718)" class="st2 st1">た</text>
<text transform="matrix(6.123234e-17 1 -1 6.123234e-17 476.0797 349.8618)" class="st2 st1">歴</text>
<text transform="matrix(6.123234e-17 1 -1 6.123234e-17 476.0797 356.8819)" class="st2 st1">史</text>
<text transform="matrix(6.123234e-17 1 -1 6.123234e-17 476.0797 363.7318)" class="st2 st1">を</text>
<text transform="matrix(6.123234e-17 1 -1 6.123234e-17 476.0797 370.6118)" class="st2 st1">探</text>
<text transform="matrix(6.123234e-17 1 -1 6.123234e-17 476.0797 376.8419)" class="st2 st1">り</text>
<text transform="matrix(6.123234e-17 1 -1 6.123234e-17 476.0797 382.7918)" class="st2 st1">ま</text>
<text transform="matrix(-0.1807 0.9835 -0.9835 -0.1807 476.5214 389.3423)" class="st2 st7">す</text>
<text transform="matrix(-0.6112 0.7915 -0.7915 -0.6112 475.7195 395.1214)" class="st2 st8">。</text>
<text transform="matrix(-0.8021 0.5972 -0.5972 -0.8021 474.04 398.1115)" class="st2 st1">新</text>
<path class="st9" d="M42.8,103.6h410.8c6.3,0,11.5,5.1,11.5,11.5v269.4c0,6.3-5.1,11.5-11.5,11.5H42.8c-6.3,0-11.5-5.1-11.5-11.5
	V115.1C31.3,108.7,36.5,103.6,42.8,103.6z"/>
<ellipse cx="254.1" cy="249.1" rx="104" ry="104.5"/>
<circle class="st10" cx="254.1" cy="248.6" r="102"/>
<text transform="matrix(1 0 0 1 238.23 179.3618)" class="st11 st2 st12">日</text>
<text transform="matrix(1 0 0 1 198.43 198.5619)" class="st11 st2 st12">本の豊かな文</text>
<text transform="matrix(1 0 0 1 181.94 217.7618)" class="st11 st2 st12">化と</text>
<text transform="matrix(1 0 0 1 211.38 217.7618)" class="st11 st2 st12">活気</text>
<text transform="matrix(1 0 0 1 243.38 217.7618)" class="st11 st2 st12">に</text>
<text transform="matrix(1 0 0 1 259.22 217.7618)" class="st11 st2 st12">満</text>
<text transform="matrix(1 0 0 1 274.42 217.7618)" class="st11 st2 st12">ち</text>
<text transform="matrix(1 0 0 1 289.94 217.7618)" class="st11 st2 st12">た歴</text>
<text transform="matrix(1 0 0 1 173.04 236.9619)" class="st11 st2 st12">史を</text>
<text transform="matrix(1 0 0 1 204.4 236.9619)" class="st11 st2 st12">探</text>
<text transform="matrix(1 0 0 1 218.64 236.9619)" class="st11 st2 st12 st13">り</text>
<text transform="matrix(1 0 0 1 232.24 236.9619)" class="st11 st2 st12">ま</text>
<text transform="matrix(1 0 0 1 247.6 236.9619)" class="st11 st2 st12">す</text>
<text transform="matrix(1 0 0 1 261.84 236.9619)" class="st11 st2 st12 st14">。</text>
<text transform="matrix(1 0 0 1 270.16 236.9619)" class="st11 st2 st12">新</text>
<text transform="matrix(1 0 0 1 284.56 236.9619)" class="st11 st2 st12">し</text>
<text transform="matrix(1 0 0 1 299.76 236.9619)" class="st11 st2 st12">い可</text>
<text transform="matrix(1 0 0 1 169.32 256.1619)" class="st11 st2 st12">能性</text>
<text transform="matrix(1 0 0 1 201.32 256.1619)" class="st11 st2 st12">に</text>
<text transform="matrix(1 0 0 1 216.84 256.1619)" class="st11 st2 st12">目</text>
<text transform="matrix(1 0 0 1 232.2 256.1619)" class="st11 st2 st12">を</text>
<text transform="matrix(1 0 0 1 247.88 256.1619)" class="st11 st2 st12">向</text>
<text transform="matrix(1 0 0 1 263.88 256.1619)" class="st11 st2 st12">け</text>
<text transform="matrix(1 0 0 1 278.6 256.1619)" class="st11 st2 st12">る</text>
<text transform="matrix(1 0 0 1 293.96 256.1619)" class="st11 st2 st12">の豊</text>
<text transform="matrix(1 0 0 1 172.63 275.3618)" class="st11 st2 st12">かな文</text>
<text transform="matrix(1 0 0 1 220.63 275.3618)" class="st11 st2 st12">化と</text>
<text transform="matrix(1 0 0 1 250.07 275.3618)" class="st11 st2 st12">活気</text>
<text transform="matrix(1 0 0 1 282.07 275.3618)" class="st11 st2 st12">に</text>
<text transform="matrix(1 0 0 1 297.91 275.3618)" class="st11 st2 st12">満</text>
<text transform="matrix(1 0 0 1 313.11 275.3618)" class="st11 st2 st12">ち</text>
<text transform="matrix(1 0 0 1 181.12 294.5619)" class="st11 st2 st12">た歴</text>
<text transform="matrix(1 0 0 1 213.12 294.5619)" class="st11 st2 st12">史を</text>
<text transform="matrix(1 0 0 1 244.48 294.5619)" class="st11 st2 st12">探</text>
<text transform="matrix(1 0 0 1 258.72 294.5619)" class="st11 st2 st12 st13">り</text>
<text transform="matrix(1 0 0 1 272.32 294.5619)" class="st11 st2 st12">ま</text>
<text transform="matrix(1 0 0 1 287.68 294.5619)" class="st11 st2 st12">す</text>
<text transform="matrix(1 0 0 1 301.92 294.5619)" class="st11 st2 st12 st14">。</text>
<text transform="matrix(1 0 0 1 196.93 313.7618)" class="st11 st2 st12">新</text>
<text transform="matrix(1 0 0 1 211.33 313.7618)" class="st11 st2 st12">し</text>
<text transform="matrix(1 0 0 1 226.53 313.7618)" class="st11 st2 st12">い可能性</text>
<text transform="matrix(1 0 0 1 290.53 313.7618)" class="st11 st2 st12">に</text>
<text transform="matrix(1 0 0 1 232.35 332.9619)" class="st11 st2 st12">目</text>
<text transform="matrix(1 0 0 1 247.71 332.9619)" class="st11 st2 st12">を</text>
</svg>
